<?xml version="1.0" encoding="UTF-8"?>
<svg width="800" height="600" viewBox="0 0 800 600" fill="none" xmlns="http://www.w3.org/2000/svg">
  <!-- Background Elements -->
  <circle cx="400" cy="300" r="280" fill="#E3F2FD" fill-opacity="0.5"/>
  <circle cx="400" cy="300" r="200" fill="#BBDEFB" fill-opacity="0.5"/>
  
  <!-- Main Laptop -->
  <path d="M250 200 h300 v200 h-300 Z" fill="#1976D2"/>
  <path d="M200 400 h400 v20 h-400 Z" fill="#1565C0"/>
  <rect x="270" y="220" width="260" height="160" fill="white"/>
  
  <!-- Screen Content -->
  <rect x="290" y="240" width="100" height="20" rx="4" fill="#E3F2FD"/>
  <rect x="290" y="270" width="220" height="10" rx="2" fill="#BBDEFB"/>
  <rect x="290" y="290" width="180" height="10" rx="2" fill="#BBDEFB"/>
  <rect x="290" y="320" width="60" height="40" rx="4" fill="#2196F3"/>
  
  <!-- Floating Elements -->
  <circle cx="600" cy="150" r="40" fill="#2196F3"/>
  <path d="M580 150 h40 M600 130 v40" stroke="white" stroke-width="4"/>
  
  <circle cx="200" cy="400" r="30" fill="#1976D2"/>
  <path d="M190 400 l20 -20 l20 20 l-20 20 Z" stroke="white" stroke-width="4" fill="none"/>
  
  <circle cx="650" cy="350" r="35" fill="#1565C0"/>
  <path d="M635 350 l15 15 l30 -30" stroke="white" stroke-width="4" fill="none"/>
</svg>